<?xml version="1.0" encoding="UTF-8"?>
<svg xmlns="http://www.w3.org/2000/svg" xmlns:xlink="http://www.w3.org/1999/xlink" width="262.5pt" height="262.499992pt" viewBox="0 0 262.5 262.499992" version="1.2">
<defs>
<clipPath id="clip1">
  <path d="M 16 56.773438 L 245 56.773438 L 245 135 L 16 135 Z M 16 56.773438 "/>
</clipPath>
</defs>
<g id="surface1">
<g clip-path="url(#clip1)" clip-rule="nonzero">
<path style=" stroke:none;fill-rule:nonzero;fill:rgb(100%,100%,100%);fill-opacity:1;" d="M 76.707031 111.019531 C 76.707031 114.085938 77.039062 116.570312 77.617188 118.394531 C 78.277344 120.214844 79.105469 122.203125 80.261719 124.359375 C 80.675781 125.019531 80.839844 125.683594 80.839844 126.261719 C 80.839844 127.089844 80.34375 127.921875 79.269531 128.75 L 74.0625 132.226562 C 73.316406 132.726562 72.574219 132.972656 71.914062 132.972656 C 71.085938 132.972656 70.261719 132.558594 69.433594 131.8125 C 68.277344 130.570312 67.285156 129.246094 66.457031 127.921875 C 65.632812 126.511719 64.804688 124.9375 63.894531 123.03125 C 57.449219 130.652344 49.351562 134.464844 39.597656 134.464844 C 32.65625 134.464844 27.117188 132.476562 23.066406 128.5 C 19.015625 124.523438 16.949219 119.222656 16.949219 112.59375 C 16.949219 105.550781 19.429688 99.835938 24.472656 95.527344 C 29.515625 91.222656 36.207031 89.066406 44.722656 89.066406 C 47.53125 89.066406 50.425781 89.316406 53.480469 89.730469 C 56.539062 90.144531 59.679688 90.808594 62.988281 91.550781 L 62.988281 85.503906 C 62.988281 79.207031 61.664062 74.816406 59.101562 72.25 C 56.457031 69.683594 51.996094 68.4375 45.628906 68.4375 C 42.738281 68.4375 39.761719 68.769531 36.703125 69.515625 C 33.644531 70.261719 30.671875 71.171875 27.777344 72.332031 C 26.457031 72.914062 25.464844 73.246094 24.886719 73.410156 C 24.308594 73.574219 23.894531 73.660156 23.5625 73.660156 C 22.40625 73.660156 21.828125 72.828125 21.828125 71.089844 L 21.828125 67.03125 C 21.828125 65.707031 21.992188 64.710938 22.40625 64.132812 C 22.820312 63.550781 23.5625 62.972656 24.71875 62.390625 C 27.613281 60.902344 31.085938 59.65625 35.132812 58.664062 C 39.183594 57.585938 43.480469 57.089844 48.027344 57.089844 C 57.863281 57.089844 65.054688 59.328125 69.683594 63.800781 C 74.226562 68.273438 76.542969 75.066406 76.542969 84.179688 L 76.542969 111.019531 Z M 43.152344 123.613281 C 45.878906 123.613281 48.6875 123.113281 51.664062 122.121094 C 54.640625 121.128906 57.285156 119.304688 59.515625 116.820312 C 60.839844 115.246094 61.828125 113.503906 62.324219 111.515625 C 62.820312 109.527344 63.152344 107.125 63.152344 104.308594 L 63.152344 100.832031 C 60.753906 100.25 58.191406 99.753906 55.546875 99.421875 C 52.902344 99.089844 50.339844 98.925781 47.78125 98.925781 C 42.242188 98.925781 38.191406 100.003906 35.464844 102.238281 C 32.738281 104.476562 31.414062 107.625 31.414062 111.765625 C 31.414062 115.660156 32.40625 118.558594 34.472656 120.546875 C 36.457031 122.617188 39.347656 123.613281 43.152344 123.613281 Z M 109.519531 132.558594 C 108.03125 132.558594 107.039062 132.3125 106.378906 131.730469 C 105.71875 131.234375 105.136719 130.074219 104.644531 128.5 L 85.21875 64.464844 C 84.722656 62.804688 84.476562 61.730469 84.476562 61.148438 C 84.476562 59.824219 85.136719 59.078125 86.460938 59.078125 L 94.558594 59.078125 C 96.128906 59.078125 97.203125 59.328125 97.78125 59.90625 C 98.445312 60.402344 98.941406 61.5625 99.4375 63.136719 L 113.320312 117.980469 L 126.214844 63.136719 C 126.628906 61.480469 127.125 60.402344 127.785156 59.90625 C 128.445312 59.410156 129.601562 59.078125 131.089844 59.078125 L 137.703125 59.078125 C 139.273438 59.078125 140.347656 59.328125 141.007812 59.90625 C 141.667969 60.402344 142.25 61.5625 142.578125 63.136719 L 155.636719 118.640625 L 169.9375 63.136719 C 170.433594 61.480469 171.011719 60.402344 171.589844 59.90625 C 172.25 59.410156 173.324219 59.078125 174.8125 59.078125 L 182.5 59.078125 C 183.820312 59.078125 184.566406 59.742188 184.566406 61.148438 C 184.566406 61.5625 184.484375 61.976562 184.398438 62.476562 C 184.316406 62.972656 184.152344 63.632812 183.820312 64.546875 L 163.902344 128.582031 C 163.40625 130.238281 162.828125 131.316406 162.167969 131.8125 C 161.503906 132.3125 160.429688 132.640625 159.027344 132.640625 L 151.917969 132.640625 C 150.347656 132.640625 149.273438 132.394531 148.613281 131.8125 C 147.953125 131.234375 147.371094 130.15625 147.042969 128.5 L 134.230469 75.066406 L 121.503906 128.417969 C 121.089844 130.074219 120.59375 131.152344 119.933594 131.730469 C 119.273438 132.3125 118.113281 132.558594 116.625 132.558594 Z M 215.722656 134.796875 C 211.425781 134.796875 207.128906 134.300781 202.996094 133.304688 C 198.863281 132.3125 195.640625 131.234375 193.492188 129.992188 C 192.167969 129.246094 191.261719 128.417969 190.929688 127.671875 C 190.597656 126.925781 190.433594 126.097656 190.433594 125.351562 L 190.433594 121.128906 C 190.433594 119.386719 191.09375 118.558594 192.335938 118.558594 C 192.832031 118.558594 193.324219 118.640625 193.820312 118.808594 C 194.316406 118.972656 195.0625 119.304688 195.886719 119.636719 C 198.699219 120.878906 201.757812 121.871094 204.980469 122.535156 C 208.285156 123.199219 211.507812 123.53125 214.816406 123.53125 C 220.023438 123.53125 224.070312 122.617188 226.882812 120.796875 C 229.691406 118.972656 231.179688 116.320312 231.179688 112.925781 C 231.179688 110.605469 230.4375 108.699219 228.949219 107.125 C 227.460938 105.550781 224.652344 104.144531 220.601562 102.820312 L 208.617188 99.089844 C 202.582031 97.1875 198.121094 94.367188 195.390625 90.640625 C 192.664062 86.996094 191.261719 82.9375 191.261719 78.628906 C 191.261719 75.148438 192.003906 72.085938 193.492188 69.433594 C 194.980469 66.78125 196.960938 64.464844 199.441406 62.640625 C 201.921875 60.734375 204.730469 59.328125 208.039062 58.332031 C 211.34375 57.339844 214.816406 56.925781 218.453125 56.925781 C 220.269531 56.925781 222.171875 57.007812 223.988281 57.253906 C 225.890625 57.503906 227.625 57.835938 229.363281 58.167969 C 231.015625 58.582031 232.585938 58.996094 234.074219 59.492188 C 235.558594 59.988281 236.71875 60.488281 237.542969 60.984375 C 238.699219 61.644531 239.527344 62.308594 240.023438 63.054688 C 240.519531 63.71875 240.765625 64.628906 240.765625 65.789062 L 240.765625 69.683594 C 240.765625 71.421875 240.105469 72.332031 238.867188 72.332031 C 238.207031 72.332031 237.128906 72 235.726562 71.339844 C 231.015625 69.183594 225.726562 68.109375 219.855469 68.109375 C 215.144531 68.109375 211.425781 68.855469 208.863281 70.425781 C 206.300781 72 204.980469 74.402344 204.980469 77.800781 C 204.980469 80.121094 205.804688 82.109375 207.460938 83.683594 C 209.113281 85.257812 212.171875 86.832031 216.550781 88.238281 L 228.289062 91.964844 C 234.238281 93.871094 238.535156 96.523438 241.097656 99.917969 C 243.660156 103.316406 244.898438 107.210938 244.898438 111.515625 C 244.898438 115.078125 244.15625 118.308594 242.75 121.128906 C 241.261719 123.945312 239.28125 126.429688 236.71875 128.417969 C 234.15625 130.488281 231.097656 131.980469 227.542969 133.054688 C 223.824219 134.214844 219.941406 134.796875 215.722656 134.796875 Z M 215.722656 134.796875 "/>
</g>
<path style=" stroke:none;fill-rule:evenodd;fill:rgb(100%,59.999084%,0%);fill-opacity:1;" d="M 231.34375 175.058594 C 204.152344 195.1875 164.648438 205.875 130.675781 205.875 C 83.070312 205.875 40.175781 188.230469 7.777344 158.902344 C 5.214844 156.582031 7.527344 153.433594 10.585938 155.257812 C 45.628906 175.636719 88.855469 187.980469 133.570312 187.980469 C 163.738281 187.980469 196.878906 181.683594 227.378906 168.761719 C 231.921875 166.691406 235.808594 171.742188 231.34375 175.058594 Z M 231.34375 175.058594 "/>
<path style=" stroke:none;fill-rule:evenodd;fill:rgb(100%,59.999084%,0%);fill-opacity:1;" d="M 242.667969 162.132812 C 239.195312 157.660156 219.691406 159.980469 210.847656 161.058594 C 208.203125 161.386719 207.789062 159.070312 210.1875 157.328125 C 225.726562 146.394531 251.265625 149.542969 254.238281 153.1875 C 257.214844 156.914062 253.414062 182.511719 238.867188 194.773438 C 236.632812 196.679688 234.484375 195.683594 235.476562 193.199219 C 238.785156 185 246.140625 166.523438 242.667969 162.132812 Z M 242.667969 162.132812 "/>
</g>
</svg>
