<?xml version="1.0" encoding="UTF-8"?>
<svg xmlns="http://www.w3.org/2000/svg" xmlns:xlink="http://www.w3.org/1999/xlink" width="262.5pt" height="262.499992pt" viewBox="0 0 262.5 262.499992" version="1.2">
<defs>
<clipPath id="clip1">
  <path d="M 31.121094 19.375 L 231.371094 19.375 L 231.371094 242.628906 L 31.121094 242.628906 Z M 31.121094 19.375 "/>
</clipPath>
</defs>
<g id="surface1">
<g clip-path="url(#clip1)" clip-rule="nonzero">
<path style=" stroke:none;fill-rule:nonzero;fill:rgb(0.779724%,46.669006%,74.119568%);fill-opacity:1;" d="M 231.34375 19.375 L 31.148438 19.375 L 48.8125 219.128906 L 131.246094 242.628906 L 213.679688 219.128906 Z M 231.34375 19.375 "/>
</g>
<path style=" stroke:none;fill-rule:nonzero;fill:rgb(1.179504%,60.778809%,89.7995%);fill-opacity:1;" d="M 131.246094 37 L 131.246094 224.417969 L 197.191406 205.617188 L 211.914062 37 Z M 131.246094 37 "/>
<path style=" stroke:none;fill-rule:nonzero;fill:rgb(100%,100%,100%);fill-opacity:1;" d="M 184.828125 66.375 L 131.246094 66.375 L 131.246094 89.875 L 160.097656 89.875 L 158.332031 113.375 L 131.246094 113.375 L 131.246094 136.878906 L 157.15625 136.878906 L 155.386719 163.316406 L 131.246094 171.539062 L 131.246094 196.214844 L 177.761719 180.941406 L 181.882812 113.375 Z M 184.828125 66.375 "/>
<path style=" stroke:none;fill-rule:nonzero;fill:rgb(93.328857%,93.328857%,93.328857%);fill-opacity:1;" d="M 131.246094 66.375 L 131.246094 89.875 L 78.84375 89.875 L 77.078125 66.375 Z M 104.160156 113.375 L 105.339844 136.878906 L 131.246094 136.878906 L 131.246094 113.375 Z M 106.515625 148.628906 L 82.964844 148.628906 L 84.730469 180.941406 L 131.246094 196.214844 L 131.246094 171.539062 L 107.105469 163.316406 Z M 106.515625 148.628906 "/>
</g>
</svg>
