<?xml version="1.0" encoding="UTF-8"?>
<svg xmlns="http://www.w3.org/2000/svg" xmlns:xlink="http://www.w3.org/1999/xlink" width="262.5pt" height="262.499992pt" viewBox="0 0 262.5 262.499992" version="1.2">
<g id="surface1">
<path style=" stroke:none;fill-rule:nonzero;fill:rgb(87.059021%,29.798889%,21.179199%);fill-opacity:1;" d="M 243.515625 120.851562 L 141.640625 18.984375 C 135.78125 13.117188 126.265625 13.117188 120.394531 18.984375 L 99.234375 40.140625 L 126.074219 66.976562 C 132.308594 64.867188 139.460938 66.28125 144.429688 71.253906 C 149.425781 76.253906 150.828125 83.46875 148.667969 89.722656 L 174.535156 115.589844 C 180.789062 113.429688 188.007812 114.824219 193.011719 119.828125 C 199.992188 126.8125 199.992188 138.132812 193.011719 145.113281 C 186.019531 152.105469 174.707031 152.105469 167.71875 145.113281 C 162.457031 139.855469 161.164062 132.144531 163.824219 125.671875 L 139.707031 101.550781 L 139.699219 165.019531 C 141.402344 165.867188 143.007812 166.988281 144.429688 168.402344 C 151.410156 175.382812 151.410156 186.703125 144.429688 193.695312 C 137.449219 200.675781 126.117188 200.675781 119.144531 193.695312 C 112.164062 186.703125 112.164062 175.382812 119.144531 168.402344 C 120.867188 166.679688 122.863281 165.375 124.996094 164.5 L 124.996094 100.441406 C 122.863281 99.570312 120.878906 98.273438 119.144531 96.539062 C 113.851562 91.253906 112.582031 83.488281 115.289062 76.992188 L 88.839844 50.535156 L 18.988281 120.386719 C 13.117188 126.253906 13.117188 135.769531 18.988281 141.640625 L 120.859375 243.515625 C 126.730469 249.375 136.246094 249.375 142.117188 243.515625 L 243.515625 142.113281 C 249.386719 136.246094 249.386719 126.71875 243.515625 120.851562 "/>
</g>
</svg>
