<?xml version="1.0" encoding="UTF-8"?>
<svg xmlns="http://www.w3.org/2000/svg" xmlns:xlink="http://www.w3.org/1999/xlink" width="262.5pt" height="262.499992pt" viewBox="0 0 262.5 262.499992" version="1.2">
<defs>
<clipPath id="clip1">
  <path d="M 10.917969 13 L 251.667969 13 L 251.667969 249 L 10.917969 249 Z M 10.917969 13 "/>
</clipPath>
</defs>
<g id="surface1">
<g clip-path="url(#clip1)" clip-rule="nonzero">
<path style=" stroke:none;fill-rule:evenodd;fill:rgb(100%,100%,100%);fill-opacity:1;" d="M 131.285156 13.425781 C 64.816406 13.425781 10.917969 67.324219 10.917969 133.8125 C 10.917969 186.988281 45.40625 232.109375 93.246094 248.027344 C 99.265625 249.132812 101.460938 245.417969 101.460938 242.230469 C 101.460938 239.371094 101.359375 231.796875 101.300781 221.757812 C 67.816406 229.027344 60.753906 205.617188 60.753906 205.617188 C 55.277344 191.710938 47.394531 188.011719 47.394531 188.011719 C 36.457031 180.539062 48.214844 180.699219 48.214844 180.699219 C 60.292969 181.550781 66.652344 193.105469 66.652344 193.105469 C 77.386719 211.503906 94.832031 206.1875 101.683594 203.109375 C 102.773438 195.332031 105.886719 190.027344 109.324219 187.019531 C 82.59375 183.976562 54.496094 173.65625 54.496094 127.523438 C 54.496094 114.382812 59.191406 103.636719 66.882812 95.222656 C 65.648438 92.171875 61.515625 79.933594 68.066406 63.363281 C 68.066406 63.363281 78.179688 60.121094 101.171875 75.699219 C 110.769531 73.03125 121.070312 71.699219 131.304688 71.648438 C 141.527344 71.699219 151.828125 73.03125 161.4375 75.699219 C 184.417969 60.121094 194.511719 63.363281 194.511719 63.363281 C 201.082031 79.933594 196.949219 92.171875 195.703125 95.222656 C 203.417969 103.636719 208.074219 114.382812 208.074219 127.523438 C 208.074219 173.765625 179.925781 183.9375 153.113281 186.917969 C 157.433594 190.628906 161.289062 197.980469 161.289062 209.207031 C 161.289062 225.296875 161.136719 238.277344 161.136719 242.230469 C 161.136719 245.449219 163.304688 249.191406 169.414062 248.019531 C 217.210938 232.058594 251.667969 186.976562 251.667969 133.8125 C 251.667969 67.324219 197.769531 13.425781 131.285156 13.425781 Z M 131.285156 13.425781 "/>
</g>
</g>
</svg>
