<?xml version="1.0" encoding="UTF-8"?>
<svg xmlns="http://www.w3.org/2000/svg" xmlns:xlink="http://www.w3.org/1999/xlink" width="262.5pt" height="262.499992pt" viewBox="0 0 262.5 262.499992" version="1.2">
<defs>
<clipPath id="clip1">
  <path d="M 27 16.242188 L 234 16.242188 L 234 246.492188 L 27 246.492188 Z M 27 16.242188 "/>
</clipPath>
</defs>
<g id="surface1">
<g clip-path="url(#clip1)" clip-rule="nonzero">
<path style=" stroke:none;fill-rule:nonzero;fill:rgb(54.899597%,32.159424%,100%);fill-opacity:1;" d="M 27.742188 225.78125 C 27.742188 237.273438 36.902344 246.492188 48.375 246.492188 L 212.886719 246.492188 C 224.355469 246.492188 233.511719 237.273438 233.511719 225.78125 L 233.511719 36.964844 C 233.523438 25.453125 224.363281 16.242188 212.886719 16.242188 L 48.375 16.242188 C 36.902344 16.242188 27.742188 25.453125 27.742188 36.964844 Z M 39.207031 36.964844 C 39.207031 31.785156 43.21875 27.746094 48.375 27.746094 L 212.886719 27.746094 C 218.035156 27.746094 222.054688 31.785156 222.054688 36.964844 L 222.054688 225.78125 C 222.054688 230.949219 218.035156 234.988281 212.886719 234.988281 L 48.375 234.988281 C 43.21875 234.988281 39.207031 230.949219 39.207031 225.78125 Z M 39.207031 36.964844 "/>
</g>
<path style=" stroke:none;fill-rule:nonzero;fill:rgb(54.899597%,32.159424%,100%);fill-opacity:1;" d="M 144.113281 130.792969 C 155.578125 130.792969 158.441406 137.125 158.441406 142.878906 L 158.441406 211.957031 L 181.371094 211.957031 L 181.371094 142.878906 C 181.9375 141.164062 181.9375 128.480469 172.191406 118.703125 C 167.617188 114.097656 159.015625 108.34375 144.6875 108.34375 C 129.203125 108.34375 113.152344 112.382812 101.695312 116.402344 L 101.695312 50.78125 L 78.765625 50.78125 L 78.765625 150.363281 L 94.8125 142.878906 C 94.8125 142.878906 121.179688 130.792969 144.113281 130.792969 Z M 144.113281 130.792969 "/>
<path style=" stroke:none;fill-rule:nonzero;fill:rgb(54.899597%,32.159424%,100%);fill-opacity:1;" d="M 181.9375 50.78125 L 159.015625 50.78125 C 156.707031 64.011719 150.984375 76.109375 141.804688 88.195312 L 164.738281 88.195312 C 175.054688 76.109375 180.214844 64.011719 181.9375 50.78125 Z M 181.9375 50.78125 "/>
<path style=" stroke:none;fill-rule:nonzero;fill:rgb(54.899597%,32.159424%,100%);fill-opacity:1;" d="M 79.328125 211.945312 L 105.121094 188.929688 L 79.328125 165.90625 Z M 79.328125 211.945312 "/>
</g>
</svg>
