<?xml version="1.0" encoding="UTF-8"?>
<svg xmlns="http://www.w3.org/2000/svg" xmlns:xlink="http://www.w3.org/1999/xlink" width="262.5pt" height="262.499992pt" viewBox="0 0 262.5 262.499992" version="1.2">
<defs>
<clipPath id="clip1">
  <path d="M 26.25 10 L 237.539062 10 L 237.539062 253.945312 L 26.25 253.945312 Z M 26.25 10 "/>
</clipPath>
</defs>
<g id="surface1">
<g clip-path="url(#clip1)" clip-rule="nonzero">
<path style=" stroke:none;fill-rule:nonzero;fill:rgb(26.269531%,62.748718%,27.839661%);fill-opacity:1;" d="M 237.539062 192.265625 L 237.539062 70.796875 L 131.894531 10.054688 L 26.25 70.796875 L 26.25 192.265625 L 131.894531 253.003906 Z M 237.539062 192.265625 "/>
</g>
<path style=" stroke:none;fill-rule:nonzero;fill:rgb(100%,100%,100%);fill-opacity:1;" d="M 179.15625 68.921875 C 171.476562 68.921875 165.257812 75.164062 165.257812 82.867188 L 165.257812 145.765625 L 104.003906 77.027344 L 103.277344 76.179688 C 96.359375 68.574219 88.453125 68.921875 84.632812 68.921875 C 76.953125 68.921875 70.730469 75.164062 70.730469 82.867188 L 70.730469 177.695312 C 70.730469 185.402344 76.953125 191.644531 84.632812 191.644531 C 92.3125 191.644531 98.53125 185.402344 98.53125 177.695312 L 98.53125 114.332031 L 161.242188 184.769531 L 161.851562 185.5625 C 168.703125 192.382812 178.015625 191.644531 179.15625 191.644531 C 186.835938 191.644531 193.058594 185.402344 193.058594 177.695312 L 193.058594 82.867188 C 193.058594 75.164062 186.835938 68.921875 179.15625 68.921875 Z M 179.15625 68.921875 "/>
</g>
</svg>
