<?xml version="1.0" encoding="UTF-8"?>
<svg xmlns="http://www.w3.org/2000/svg" xmlns:xlink="http://www.w3.org/1999/xlink" width="262.5pt" height="262.499992pt" viewBox="0 0 262.5 262.499992" version="1.2">
<defs>
<clipPath id="clip1">
  <path d="M 5 108.089844 L 258 108.089844 L 258 165.089844 L 5 165.089844 Z M 5 108.089844 "/>
</clipPath>
</defs>
<g id="surface1">
<g clip-path="url(#clip1)" clip-rule="nonzero">
<path style=" stroke:none;fill-rule:nonzero;fill:rgb(100%,100%,100%);fill-opacity:1;" d="M 131.011719 122.339844 C 121.152344 122.339844 114.042969 128.75 114.042969 138.371094 C 114.042969 147.988281 122.046875 154.402344 131.90625 154.402344 C 137.859375 154.402344 143.113281 152.050781 146.363281 148.085938 L 139.53125 144.148438 C 137.726562 146.117188 134.984375 147.265625 131.90625 147.265625 C 127.625 147.265625 123.992188 145.039062 122.644531 141.476562 L 147.664062 141.476562 C 147.863281 140.480469 147.980469 139.445312 147.980469 138.359375 C 147.980469 128.75 140.871094 122.339844 131.011719 122.339844 Z M 122.5625 135.253906 C 123.679688 131.699219 126.734375 129.464844 131.003906 129.464844 C 135.28125 129.464844 138.335938 131.699219 139.441406 135.253906 Z M 227.171875 122.339844 C 217.3125 122.339844 210.203125 128.75 210.203125 138.371094 C 210.203125 147.988281 218.203125 154.402344 228.0625 154.402344 C 234.019531 154.402344 239.269531 152.050781 242.523438 148.085938 L 235.691406 144.148438 C 233.886719 146.117188 231.144531 147.265625 228.0625 147.265625 C 223.785156 147.265625 220.152344 145.039062 218.804688 141.476562 L 243.824219 141.476562 C 244.023438 140.480469 244.136719 139.445312 244.136719 138.359375 C 244.136719 128.75 237.03125 122.339844 227.171875 122.339844 Z M 218.730469 135.253906 C 219.847656 131.699219 222.902344 129.464844 227.171875 129.464844 C 231.449219 129.464844 234.503906 131.699219 235.609375 135.253906 Z M 183.878906 138.371094 C 183.878906 143.714844 187.378906 147.277344 192.808594 147.277344 C 196.488281 147.277344 199.246094 145.609375 200.667969 142.894531 L 207.523438 146.839844 C 204.683594 151.558594 199.363281 154.402344 192.808594 154.402344 C 182.941406 154.402344 175.839844 147.988281 175.839844 138.371094 C 175.839844 128.75 182.949219 122.339844 192.808594 122.339844 C 199.363281 122.339844 204.675781 125.179688 207.523438 129.898438 L 200.667969 133.84375 C 199.246094 131.128906 196.488281 129.464844 192.808594 129.464844 C 187.386719 129.464844 183.878906 133.027344 183.878906 138.371094 Z M 257.53125 112.542969 L 257.53125 153.511719 L 249.496094 153.511719 L 249.496094 112.542969 Z M 38.058594 108.089844 L 71.054688 165.089844 L 5.0625 165.089844 Z M 120.554688 112.542969 L 95.808594 155.292969 L 71.0625 112.542969 L 80.34375 112.542969 L 95.808594 139.261719 L 111.277344 112.542969 Z M 173.160156 123.230469 L 173.160156 131.859375 C 172.269531 131.601562 171.320312 131.421875 170.304688 131.421875 C 165.117188 131.421875 161.375 134.984375 161.375 140.328125 L 161.375 153.511719 L 153.335938 153.511719 L 153.335938 123.230469 L 161.375 123.230469 L 161.375 131.421875 C 161.375 126.898438 166.652344 123.230469 173.160156 123.230469 Z M 173.160156 123.230469 "/>
</g>
</g>
</svg>
