<?xml version="1.0" encoding="UTF-8"?>
<svg xmlns="http://www.w3.org/2000/svg" xmlns:xlink="http://www.w3.org/1999/xlink" width="262.5pt" height="262.499992pt" viewBox="0 0 262.5 262.499992" version="1.2">
<defs>
<clipPath id="clip1">
  <path d="M 10.734375 10.734375 L 251.214844 10.734375 L 251.214844 251.214844 L 10.734375 251.214844 Z M 10.734375 10.734375 "/>
</clipPath>
<clipPath id="clip2">
  <path d="M 10.734375 10.734375 L 251.214844 10.734375 L 251.214844 251.214844 L 10.734375 251.214844 Z M 10.734375 10.734375 "/>
</clipPath>
</defs>
<g id="surface1">
<g clip-path="url(#clip1)" clip-rule="nonzero">
<path style=" stroke:none;fill-rule:nonzero;fill:rgb(100%,100%,100%);fill-opacity:1;" d="M 251.214844 130.976562 C 251.214844 132.945312 251.167969 134.910156 251.070312 136.875 C 250.976562 138.839844 250.828125 140.804688 250.636719 142.761719 C 250.445312 144.71875 250.203125 146.671875 249.914062 148.617188 C 249.625 150.566406 249.289062 152.503906 248.90625 154.433594 C 248.523438 156.363281 248.089844 158.28125 247.613281 160.191406 C 247.132812 162.101562 246.609375 163.996094 246.039062 165.878906 C 245.46875 167.761719 244.851562 169.628906 244.1875 171.484375 C 243.523438 173.335938 242.816406 175.171875 242.0625 176.988281 C 241.308594 178.808594 240.511719 180.605469 239.671875 182.386719 C 238.832031 184.164062 237.945312 185.921875 237.019531 187.65625 C 236.089844 189.390625 235.121094 191.105469 234.109375 192.792969 C 233.097656 194.480469 232.046875 196.140625 230.953125 197.777344 C 229.859375 199.414062 228.726562 201.023438 227.554688 202.601562 C 226.382812 204.183594 225.171875 205.734375 223.921875 207.253906 C 222.675781 208.777344 221.390625 210.265625 220.066406 211.722656 C 218.746094 213.183594 217.390625 214.605469 216 216 C 214.605469 217.390625 213.183594 218.746094 211.722656 220.066406 C 210.265625 221.390625 208.777344 222.675781 207.253906 223.921875 C 205.734375 225.171875 204.183594 226.382812 202.601562 227.554688 C 201.023438 228.726562 199.414062 229.859375 197.777344 230.953125 C 196.140625 232.046875 194.480469 233.097656 192.792969 234.109375 C 191.105469 235.121094 189.390625 236.089844 187.65625 237.019531 C 185.921875 237.945312 184.164062 238.832031 182.386719 239.671875 C 180.605469 240.511719 178.808594 241.308594 176.988281 242.0625 C 175.171875 242.816406 173.335938 243.523438 171.484375 244.1875 C 169.628906 244.851562 167.761719 245.46875 165.878906 246.039062 C 163.996094 246.609375 162.101562 247.132812 160.191406 247.613281 C 158.28125 248.089844 156.363281 248.523438 154.433594 248.90625 C 152.503906 249.289062 150.566406 249.625 148.617188 249.914062 C 146.671875 250.203125 144.71875 250.445312 142.761719 250.636719 C 140.804688 250.828125 138.839844 250.972656 136.875 251.070312 C 134.910156 251.167969 132.945312 251.214844 130.976562 251.214844 C 129.007812 251.214844 127.042969 251.167969 125.074219 251.070312 C 123.109375 250.972656 121.148438 250.828125 119.191406 250.636719 C 117.230469 250.445312 115.277344 250.203125 113.332031 249.914062 C 111.386719 249.625 109.449219 249.289062 107.519531 248.90625 C 105.589844 248.523438 103.667969 248.089844 101.757812 247.613281 C 99.851562 247.132812 97.953125 246.609375 96.070312 246.039062 C 94.1875 245.46875 92.320312 244.851562 90.46875 244.1875 C 88.613281 243.523438 86.78125 242.816406 84.960938 242.0625 C 83.144531 241.308594 81.34375 240.511719 79.566406 239.671875 C 77.789062 238.832031 76.03125 237.945312 74.292969 237.019531 C 72.558594 236.089844 70.847656 235.121094 69.160156 234.109375 C 67.472656 233.097656 65.808594 232.046875 64.171875 230.953125 C 62.539062 229.859375 60.929688 228.726562 59.347656 227.554688 C 57.769531 226.382812 56.21875 225.171875 54.695312 223.921875 C 53.175781 222.675781 51.683594 221.390625 50.226562 220.066406 C 48.769531 218.746094 47.34375 217.390625 45.953125 216 C 44.5625 214.605469 43.203125 213.183594 41.882812 211.722656 C 40.5625 210.265625 39.277344 208.777344 38.027344 207.253906 C 36.78125 205.734375 35.570312 204.183594 34.398438 202.601562 C 33.226562 201.023438 32.09375 199.414062 31 197.777344 C 29.90625 196.140625 28.855469 194.480469 27.84375 192.792969 C 26.832031 191.105469 25.859375 189.390625 24.933594 187.65625 C 24.003906 185.921875 23.121094 184.164062 22.28125 182.386719 C 21.4375 180.605469 20.640625 178.808594 19.886719 176.988281 C 19.136719 175.171875 18.425781 173.335938 17.765625 171.484375 C 17.101562 169.628906 16.484375 167.761719 15.914062 165.878906 C 15.339844 163.996094 14.816406 162.101562 14.339844 160.191406 C 13.859375 158.28125 13.429688 156.363281 13.046875 154.433594 C 12.660156 152.503906 12.324219 150.566406 12.035156 148.617188 C 11.746094 146.671875 11.507812 144.71875 11.3125 142.761719 C 11.121094 140.804688 10.976562 138.839844 10.878906 136.875 C 10.785156 134.910156 10.734375 132.945312 10.734375 130.976562 C 10.734375 129.007812 10.785156 127.042969 10.878906 125.074219 C 10.976562 123.109375 11.121094 121.148438 11.3125 119.191406 C 11.507812 117.230469 11.746094 115.277344 12.035156 113.332031 C 12.324219 111.386719 12.660156 109.449219 13.046875 107.519531 C 13.429688 105.585938 13.859375 103.667969 14.339844 101.757812 C 14.816406 99.851562 15.339844 97.953125 15.914062 96.070312 C 16.484375 94.1875 17.101562 92.320312 17.765625 90.46875 C 18.425781 88.613281 19.136719 86.78125 19.886719 84.960938 C 20.640625 83.144531 21.4375 81.34375 22.28125 79.566406 C 23.121094 77.789062 24.003906 76.03125 24.933594 74.292969 C 25.859375 72.558594 26.832031 70.847656 27.84375 69.160156 C 28.855469 67.472656 29.90625 65.808594 31 64.171875 C 32.09375 62.539062 33.226562 60.929688 34.398438 59.347656 C 35.570312 57.769531 36.78125 56.21875 38.027344 54.695312 C 39.277344 53.175781 40.5625 51.683594 41.882812 50.226562 C 43.203125 48.769531 44.5625 47.34375 45.953125 45.953125 C 47.34375 44.5625 48.769531 43.203125 50.226562 41.882812 C 51.683594 40.5625 53.175781 39.277344 54.695312 38.027344 C 56.21875 36.78125 57.769531 35.570312 59.347656 34.398438 C 60.929688 33.226562 62.539062 32.09375 64.171875 31 C 65.808594 29.90625 67.472656 28.855469 69.160156 27.84375 C 70.847656 26.832031 72.558594 25.859375 74.292969 24.933594 C 76.03125 24.003906 77.789062 23.121094 79.566406 22.28125 C 81.34375 21.4375 83.144531 20.640625 84.960938 19.886719 C 86.78125 19.136719 88.613281 18.425781 90.46875 17.765625 C 92.320312 17.101562 94.1875 16.484375 96.070312 15.914062 C 97.953125 15.339844 99.851562 14.816406 101.757812 14.339844 C 103.667969 13.859375 105.589844 13.429688 107.519531 13.046875 C 109.449219 12.660156 111.386719 12.324219 113.332031 12.035156 C 115.277344 11.746094 117.230469 11.507812 119.191406 11.3125 C 121.148438 11.121094 123.109375 10.976562 125.074219 10.878906 C 127.042969 10.785156 129.007812 10.734375 130.976562 10.734375 C 132.945312 10.734375 134.910156 10.785156 136.875 10.878906 C 138.839844 10.976562 140.804688 11.121094 142.761719 11.3125 C 144.71875 11.507812 146.671875 11.746094 148.617188 12.035156 C 150.566406 12.324219 152.503906 12.660156 154.433594 13.046875 C 156.363281 13.429688 158.28125 13.859375 160.191406 14.339844 C 162.101562 14.816406 163.996094 15.339844 165.878906 15.914062 C 167.761719 16.484375 169.628906 17.101562 171.484375 17.765625 C 173.335938 18.425781 175.171875 19.136719 176.988281 19.886719 C 178.808594 20.640625 180.605469 21.4375 182.386719 22.28125 C 184.164062 23.121094 185.921875 24.003906 187.65625 24.933594 C 189.390625 25.859375 191.105469 26.832031 192.792969 27.84375 C 194.480469 28.855469 196.140625 29.90625 197.777344 31 C 199.414062 32.09375 201.023438 33.226562 202.601562 34.398438 C 204.183594 35.570312 205.734375 36.78125 207.253906 38.027344 C 208.777344 39.277344 210.265625 40.5625 211.722656 41.882812 C 213.183594 43.203125 214.605469 44.5625 216 45.953125 C 217.390625 47.34375 218.746094 48.769531 220.066406 50.226562 C 221.390625 51.683594 222.675781 53.175781 223.921875 54.695312 C 225.171875 56.21875 226.382812 57.769531 227.554688 59.347656 C 228.726562 60.929688 229.859375 62.539062 230.953125 64.171875 C 232.046875 65.808594 233.097656 67.472656 234.109375 69.160156 C 235.121094 70.847656 236.089844 72.558594 237.019531 74.292969 C 237.945312 76.03125 238.832031 77.789062 239.671875 79.566406 C 240.511719 81.34375 241.308594 83.144531 242.0625 84.960938 C 242.816406 86.78125 243.523438 88.613281 244.1875 90.46875 C 244.851562 92.320312 245.46875 94.1875 246.039062 96.070312 C 246.609375 97.953125 247.132812 99.851562 247.613281 101.757812 C 248.089844 103.667969 248.523438 105.585938 248.90625 107.519531 C 249.289062 109.449219 249.625 111.386719 249.914062 113.332031 C 250.203125 115.277344 250.445312 117.230469 250.636719 119.191406 C 250.828125 121.148438 250.976562 123.109375 251.070312 125.074219 C 251.167969 127.042969 251.214844 129.007812 251.214844 130.976562 Z M 251.214844 130.976562 "/>
</g>
<path style=" stroke:none;fill-rule:nonzero;fill:rgb(0.389099%,34.118652%,60.778809%);fill-opacity:1;" d="M 27.847656 130.976562 C 27.847656 171.8125 51.566406 207.074219 85.980469 223.792969 L 36.769531 88.992188 C 31.042969 101.832031 27.847656 115.996094 27.847656 130.976562 Z M 200.609375 125.78125 C 200.609375 113.039062 196.027344 104.195312 192.113281 97.347656 C 186.882812 88.777344 181.964844 81.644531 181.964844 73.160156 C 181.964844 63.71875 189.183594 54.851562 199.304688 54.851562 C 199.757812 54.851562 200.171875 54.890625 200.625 54.902344 C 182.28125 38.046875 157.832031 27.839844 130.976562 27.839844 C 94.933594 27.839844 63.230469 46.34375 44.789062 74.347656 C 47.21875 74.398438 49.492188 74.4375 51.445312 74.4375 C 62.203125 74.4375 78.929688 73.160156 78.929688 73.160156 C 84.472656 72.785156 85.152344 80.976562 79.570312 81.644531 C 79.570312 81.644531 74 82.316406 67.792969 82.613281 L 105.359375 194.355469 L 127.925781 126.679688 L 111.851562 82.613281 C 106.308594 82.316406 101.035156 81.644531 101.035156 81.644531 C 95.480469 81.277344 96.117188 72.777344 101.667969 73.160156 C 101.667969 73.160156 118.730469 74.4375 128.855469 74.4375 C 139.652344 74.4375 156.347656 73.160156 156.347656 73.160156 C 161.894531 72.785156 162.5625 80.976562 157.011719 81.644531 C 157.011719 81.644531 151.398438 82.316406 145.195312 82.613281 L 182.453125 193.480469 L 192.761719 159.128906 C 198 145.726562 200.609375 134.644531 200.609375 125.78125 Z M 132.777344 139.976562 L 101.839844 229.902344 C 111.089844 232.65625 120.855469 234.109375 130.976562 234.109375 C 142.972656 234.109375 154.492188 232.023438 165.238281 228.261719 C 164.992188 227.808594 164.695312 227.339844 164.484375 226.839844 Z M 221.492188 81.46875 C 221.945312 84.753906 222.195312 88.285156 222.195312 92.070312 C 222.195312 102.5625 220.214844 114.324219 214.332031 129.058594 L 182.84375 220.164062 C 213.503906 202.289062 234.109375 169.035156 234.109375 130.980469 C 234.109375 113.054688 229.523438 96.1875 221.492188 81.46875 Z M 221.492188 81.46875 "/>
<g clip-path="url(#clip2)" clip-rule="nonzero">
<path style=" stroke:none;fill-rule:nonzero;fill:rgb(0.389099%,34.118652%,60.778809%);fill-opacity:1;" d="M 10.734375 130.976562 C 10.734375 197.253906 64.660156 251.214844 130.976562 251.214844 C 197.292969 251.214844 251.214844 197.253906 251.214844 130.976562 C 251.214844 64.699219 197.292969 10.734375 130.976562 10.734375 C 64.660156 10.734375 10.734375 64.699219 10.734375 130.976562 Z M 16.246094 130.976562 C 16.246094 67.75 67.699219 16.285156 130.96875 16.285156 C 194.246094 16.285156 245.699219 67.75 245.699219 130.976562 C 245.699219 194.203125 194.246094 245.679688 130.976562 245.679688 C 67.710938 245.679688 16.246094 194.203125 16.246094 130.976562 Z M 16.246094 130.976562 "/>
</g>
</g>
</svg>
